<?xml version="1.0"?>
<svg xmlns="http://www.w3.org/2000/svg" xmlns:xlink="http://www.w3.org/1999/xlink" xmlns:svgjs="http://svgjs.com/svgjs" version="1.1" width="512" height="512" x="0" y="0" viewBox="0 0 512.007 512.007" style="enable-background:new 0 0 512 512" xml:space="preserve" class=""><g>
<g xmlns="http://www.w3.org/2000/svg">
	<g>
		<g>
			<circle cx="170.67" cy="170.67" r="64" fill="#fbfbfb" data-original="#000000" style="" class=""/>
			<path d="M509.146,3.411c-3.146-3.427-8.167-4.365-12.375-2.385L252.687,121.193c-4.875,2.708-6.833,8.708-4.5,13.771     c5.104,11.146,7.813,23.5,7.813,35.708c0,47.052-38.271,85.333-85.333,85.333c-28.667,0-55.313-14.354-71.25-38.406     c-3.083-4.677-9.25-6.115-14.083-3.427l-55.917,31.063c-2.542,1.417-4.396,3.813-5.125,6.635     c-0.75,2.813-0.292,5.813,1.229,8.292c31.417,50.833,85.667,81.177,145.146,81.177c0.779,0,1.54-0.064,2.315-0.074     l40.664,162.658c1.063,4.24,4.604,7.396,8.917,7.99c0.479,0.063,0.958,0.094,1.438,0.094c3.813,0,7.375-2.042,9.292-5.417     L510.625,15.922C512.917,11.87,512.313,6.807,509.146,3.411z" fill="#fbfbfb" data-original="#000000" style="" class=""/>
			<path d="M85.979,181.12c-0.396-3.354-0.646-6.979-0.646-10.448c0-47.052,38.271-85.333,85.333-85.333     c19.604,0,38.792,6.833,54,19.25c3.396,2.771,8.104,3.167,11.896,1.083l58.375-32.208c2.854-1.573,4.833-4.354,5.375-7.552     c0.542-3.208-0.396-6.49-2.563-8.906c-32.438-36.219-78.75-57-127.083-57C76.562,0.005,0,76.568,0,170.672     c0,15.625,2.25,31.417,6.688,46.927c0.896,3.115,3.146,5.667,6.146,6.917c1.333,0.542,2.708,0.813,4.104,0.813     c1.771,0,3.563-0.448,5.146-1.323l58.458-32.25C84.354,189.651,86.5,185.443,85.979,181.12z" fill="#fbfbfb" data-original="#000000" style="" class=""/>
		</g>
	</g>
</g>
<g xmlns="http://www.w3.org/2000/svg">
</g>
<g xmlns="http://www.w3.org/2000/svg">
</g>
<g xmlns="http://www.w3.org/2000/svg">
</g>
<g xmlns="http://www.w3.org/2000/svg">
</g>
<g xmlns="http://www.w3.org/2000/svg">
</g>
<g xmlns="http://www.w3.org/2000/svg">
</g>
<g xmlns="http://www.w3.org/2000/svg">
</g>
<g xmlns="http://www.w3.org/2000/svg">
</g>
<g xmlns="http://www.w3.org/2000/svg">
</g>
<g xmlns="http://www.w3.org/2000/svg">
</g>
<g xmlns="http://www.w3.org/2000/svg">
</g>
<g xmlns="http://www.w3.org/2000/svg">
</g>
<g xmlns="http://www.w3.org/2000/svg">
</g>
<g xmlns="http://www.w3.org/2000/svg">
</g>
<g xmlns="http://www.w3.org/2000/svg">
</g>
</g></svg>
